<?xml version="1.0" encoding="UTF-8" standalone="no"?>
<svg
   width="64"
   height="64"
   viewBox="0 0 16.933 16.933"
   version="1.1"
   id="svg21"
   sodipodi:docname="firefox.svg"
   xml:space="preserve"
   inkscape:version="1.3.2 (091e20ef0f, 2023-11-25, custom)"
   xmlns:inkscape="http://www.inkscape.org/namespaces/inkscape"
   xmlns:sodipodi="http://sodipodi.sourceforge.net/DTD/sodipodi-0.dtd"
   xmlns="http://www.w3.org/2000/svg"
   xmlns:svg="http://www.w3.org/2000/svg"><sodipodi:namedview
     id="namedview21"
     pagecolor="#ffffff"
     bordercolor="#000000"
     borderopacity="0.25"
     inkscape:showpageshadow="2"
     inkscape:pageopacity="0.0"
     inkscape:pagecheckerboard="0"
     inkscape:deskcolor="#d1d1d1"
     inkscape:zoom="11.313709"
     inkscape:cx="45.608385"
     inkscape:cy="42.205434"
     inkscape:window-width="2560"
     inkscape:window-height="1365"
     inkscape:window-x="0"
     inkscape:window-y="0"
     inkscape:window-maximized="1"
     inkscape:current-layer="svg21" /><defs
     id="defs9"><clipPath
       id="g"><path
         d="M5.247 32.628c2.087 12.328 13.26 21.741 25.944 22.1 11.74.332 19.24-6.483 22.337-13.131a24.483 24.483 0 0 0 .841-18.246v-.026c0-.02-.004-.033 0-.027l.005.046c.96 6.261-2.225 12.328-7.204 16.43-5.314 3.83-14.66 7.375-20.88 3.522a14.015 14.015 0 0 1-.394-.196c-5.656-2.703-7.993-7.857-7.492-12.277A6.942 6.942 0 0 1 12 26.795c3.02-1.85 6.781-2 9.939-.399a13.462 13.462 0 0 0 10.15.4c-.01-.22-4.715-2.093-6.55-3.9-.98-.966-1.445-1.431-1.857-1.78a8.084 8.084 0 0 0-.698-.53c-.16-.109-.34-.227-.558-.37-1.972-1.282-5.893-1.211-6.023-1.208h-.013c-1.07-1.357-.995-5.835-.934-6.77-.317.127-.62.288-.903.479a19.686 19.686 0 0 0-2.642 2.263 23.606 23.606 0 0 0-2.538 3.026v.003-.003a22.832 22.832 0 0 0-3.627 8.19c-.013.055-.973 4.255-.5 6.432z"
         fill="#ff6333"
         opacity=".8"
         stroke-width=".698"
         id="path1" /></clipPath><clipPath
       id="c"><path
         d="M10.695.855C8.898 1.907 8.289 3.854 8.233 4.828c.084-.006.166-.013.251-.013a3.61 3.61 0 0 1 2.462.975 3.61 3.61 0 0 1 0 .001l.007.007c.293.298.518.59.665.848.04.03.12.098.152.127 1.123 1.068 1.213 2.517.654 3.789l.056-.039c1.31-1.08 2.15-2.673 1.91-4.321l-.005-.018c-.81-2.017-2.18-2.83-3.3-4.6a8.661 8.661 0 0 1-.17-.274 2.237 2.237 0 0 1-.078-.148A1.302 1.302 0 0 1 10.73.88a.018.018 0 0 0-.016-.018.025.025 0 0 0-.013 0l-.004.001a.048.048 0 0 0-.005.003c-.042.02-.12.104-.209.229.09-.129.167-.215.21-.235z"
         opacity=".8"
         stroke-width=".185"
         id="path2" /></clipPath><clipPath
       id="e"><path
         d="M4.09 3.238a1.277 1.277 0 0 0-.24.127 5.21 5.21 0 0 0-.698.599 6.041 6.041 0 0 0-1.63 2.968c-.005.014-.26 1.125-.134 1.701.553 3.262 3.509 5.752 6.865 5.847 3.105.088 5.09-1.715 5.91-3.474a6.477 6.477 0 0 0 .224-4.82c.25 1.654-.592 3.254-1.907 4.337l-.078.054c.234-.557.346-1.119.336-1.615-.034-1.607-1.09-2.682-2.385-2.75a3.141 3.141 0 0 0-.461.017c2.572 1.286 1.882 5.715-1.683 5.548a3.18 3.18 0 0 1-.931-.18 3.746 3.746 0 0 1-.21-.086L7 11.48c1.313.78 3.131.346 4.52-.372-1.39.718-3.207 1.152-4.52.372-.014-.009-.03-.015-.044-.023l-.022-.011c-.866-.453-1.58-1.303-1.67-2.333s.33-1.23 2.364-1.23c.22 0 .849-.613.86-.791l.002-.001c-.002-.059-1.248-.554-1.733-1.032-.26-.255-.382-.379-.491-.471a2.132 2.132 0 0 0-.185-.14l-.147-.098a1.49 1.49 0 0 0-.346-.154c-.021-.007-.042-.015-.064-.021-.033-.01-.065-.02-.098-.028a2.406 2.406 0 0 0-.2-.044h-.002c-.06-.012-.12-.02-.18-.027l-.017-.003a4.14 4.14 0 0 0-.13-.014l-.034-.003a5.902 5.902 0 0 0-.523-.026h-.003c-.284-.359-.264-1.543-.247-1.79zm10.298 2.949-.001-.01-.002-.013v.014l.003.009zm-9.912.508zm-1.01.84zm2.426 3.223a3.935 3.935 0 0 0 0 0z"
         opacity=".8"
         stroke-width=".185"
         id="path3" /></clipPath><clipPath
       id="a"><path
         d="M32.062 18.219a14 14 0 0 0-8.453 2.842c.023.02.05.035.072.054.412.35.878.816 1.858 1.782 1.834 1.806 6.54 3.678 6.55 3.898l-.007.004c-.043.672-2.422 2.99-3.252 2.99-7.688 0-8.936 4.65-8.936 4.65h.002c.338 3.895 3.036 7.104 6.313 8.817l.082.041c.053.033.111.056.166.088.085.042.171.084.257.123.265.118.529.227.793.326 1.132.4 2.318.629 3.518.678 13.475.632 16.085-16.11 6.361-20.971.4-.052 1.208-.09 1.742-.063a9.006 9.006 0 0 1 5.2 1.993 14 14 0 0 0-12.266-7.252zm8.61 25.039a27.538 27.538 0 0 1-.003.002 14 14 0 0 0 .002-.002z"
         fill="#9a46eb"
         opacity=".8"
         stroke-linecap="round"
         stroke-linejoin="round"
         stroke-width="1.615"
         style="paint-order:stroke fill markers"
         id="path4" /></clipPath><clipPath
       id="i"><path
         d="M0 0v17.198h17.198V0zm8.483 4.82a3.704 3.704 0 0 1 3.245 1.919c-.39-.313-.863-.5-1.375-.527a3.141 3.141 0 0 0-.461.016c2.572 1.287 1.882 5.716-1.683 5.549a3.181 3.181 0 0 1-.931-.18 3.75 3.75 0 0 1-.21-.086L7 11.48c-.014-.009-.03-.015-.044-.024l-.022-.01c-.867-.454-1.58-1.303-1.67-2.333s.33-1.23 2.364-1.23c.22 0 .849-.614.86-.792h.002c-.003-.059-1.248-.554-1.733-1.032-.26-.256-.382-.379-.491-.471l-.02-.015a3.704 3.704 0 0 1 2.237-.752z"
         fill="#9a46eb"
         opacity=".35"
         stroke-linecap="square"
         stroke-width=".529"
         id="path5" /></clipPath><filter
       id="h"
       x="-0.043063726"
       y="-0.054277694"
       width="1.0861275"
       height="1.1085554"
       color-interpolation-filters="sRGB"><feGaussianBlur
         stdDeviation=".745"
         id="feGaussianBlur5" /></filter><filter
       id="d"
       x="-0.048718143"
       y="-0.04720165"
       width="1.0974363"
       height="1.0944033"
       color-interpolation-filters="sRGB"><feGaussianBlur
         stdDeviation=".29"
         id="feGaussianBlur6" /></filter><filter
       id="f"
       x="-0.080993521"
       y="-0.080993521"
       width="1.161987"
       height="1.161987"
       color-interpolation-filters="sRGB"><feGaussianBlur
         stdDeviation=".25"
         id="feGaussianBlur7" /></filter><filter
       id="b"
       x="-0.048578768"
       y="-0.047395793"
       width="1.0971575"
       height="1.0947916"
       color-interpolation-filters="sRGB"><feGaussianBlur
         stdDeviation="1.093"
         id="feGaussianBlur8" /></filter><filter
       id="j"
       x="-0.1470509"
       y="-0.1470509"
       width="1.2941018"
       height="1.2941018"
       color-interpolation-filters="sRGB"><feGaussianBlur
         stdDeviation=".455"
         id="feGaussianBlur9" /></filter><radialGradient
       id="radial-gradient"
       cx="-14569.52"
       cy="9284.3"
       fx="-14598.28277817514"
       r="450.88"
       gradientTransform="matrix(0.76,0.03,0.05,-1.12,11545.85,11139.76)"
       gradientUnits="userSpaceOnUse"><stop
         offset="0.1"
         stop-color="#ffea00"
         id="stop1" /><stop
         offset="0.17"
         stop-color="#ffde00"
         id="stop2" /><stop
         offset="0.28"
         stop-color="#ffbf00"
         id="stop3" /><stop
         offset="0.43"
         stop-color="#ff8e00"
         id="stop4" /><stop
         offset="0.77"
         stop-color="#ff272d"
         id="stop5" /><stop
         offset="0.87"
         stop-color="#e0255a"
         id="stop6" /><stop
         offset="0.95"
         stop-color="#cc2477"
         id="stop7" /><stop
         offset="1"
         stop-color="#c42482"
         id="stop8" /></radialGradient><radialGradient
       id="radial-gradient-2"
       cx="-7540.92"
       cy="8862.36"
       r="791.23"
       gradientTransform="matrix(1.23,0,0,-1.23,9900.64,11054.07)"
       gradientUnits="userSpaceOnUse"><stop
         offset="0"
         stop-color="#00ccda"
         id="stop9" /><stop
         offset="0.22"
         stop-color="#0083ff"
         id="stop10" /><stop
         offset="0.26"
         stop-color="#007af9"
         id="stop11" /><stop
         offset="0.33"
         stop-color="#0060e8"
         id="stop12" /><stop
         offset="0.33"
         stop-color="#005fe7"
         id="stop13" /><stop
         offset="0.44"
         stop-color="#2639ad"
         id="stop14" /><stop
         offset="0.52"
         stop-color="#401e84"
         id="stop15" /><stop
         offset="0.57"
         stop-color="#4a1475"
         id="stop16" /></radialGradient><linearGradient
       id="linear-gradient"
       x1="540.64"
       y1="254.8"
       x2="349.2"
       y2="881.03"
       gradientTransform="matrix(1,0,0,-1,0,984)"
       gradientUnits="userSpaceOnUse"><stop
         offset="0"
         stop-color="#000f43"
         stop-opacity="0.4"
         id="stop17" /><stop
         offset="0.48"
         stop-color="#001962"
         stop-opacity="0.17"
         id="stop18" /><stop
         offset="1"
         stop-color="#002079"
         stop-opacity="0"
         id="stop19" /></linearGradient><radialGradient
       id="radial-gradient-3"
       cx="-8291.37"
       cy="7446.88"
       r="266.89"
       gradientTransform="matrix(1.22,0.12,0.12,-1.22,10186.72,10733.96)"
       gradientUnits="userSpaceOnUse"><stop
         offset="0"
         stop-color="#ffea00"
         id="stop20" /><stop
         offset="0.5"
         stop-color="#ff272d"
         id="stop21" /><stop
         offset="1"
         stop-color="#c42482"
         id="stop22" /></radialGradient><radialGradient
       id="radial-gradient-4"
       cx="-8315.51"
       cy="7702.79"
       r="445.68"
       gradientTransform="matrix(1.22,0.12,0.12,-1.22,10186.72,10733.96)"
       gradientUnits="userSpaceOnUse"><stop
         offset="0"
         stop-color="#ffe900"
         id="stop23" /><stop
         offset="0.16"
         stop-color="#ffaf0e"
         id="stop24" /><stop
         offset="0.32"
         stop-color="#ff7a1b"
         id="stop25" /><stop
         offset="0.47"
         stop-color="#ff4e26"
         id="stop26" /><stop
         offset="0.62"
         stop-color="#ff2c2e"
         id="stop27" /><stop
         offset="0.76"
         stop-color="#ff1434"
         id="stop28" /><stop
         offset="0.89"
         stop-color="#ff0538"
         id="stop29" /><stop
         offset="1"
         stop-color="#ff0039"
         id="stop30" /></radialGradient><radialGradient
       id="radial-gradient-5"
       cx="-8252.47"
       cy="7289.65"
       r="408.96"
       gradientTransform="matrix(1.22,0.12,0.12,-1.22,10186.72,10733.96)"
       gradientUnits="userSpaceOnUse"><stop
         offset="0"
         stop-color="#ff272d"
         id="stop31" /><stop
         offset="0.5"
         stop-color="#c42482"
         id="stop32" /><stop
         offset="0.99"
         stop-color="#620700"
         id="stop33" /></radialGradient><radialGradient
       id="radial-gradient-6"
       cx="715.19"
       cy="589.96"
       fx="743.1665035759816"
       fy="576.1323859732546"
       r="782.18"
       gradientTransform="matrix(1,0,0,-1,0,984)"
       gradientUnits="userSpaceOnUse"><stop
         offset="0.16"
         stop-color="#ffea00"
         id="stop34" /><stop
         offset="0.23"
         stop-color="#ffde00"
         id="stop35" /><stop
         offset="0.37"
         stop-color="#ffbf00"
         id="stop36" /><stop
         offset="0.54"
         stop-color="#ff8e00"
         id="stop37" /><stop
         offset="0.76"
         stop-color="#ff272d"
         id="stop38" /><stop
         offset="0.8"
         stop-color="#f92433"
         id="stop39" /><stop
         offset="0.84"
         stop-color="#e91c45"
         id="stop40" /><stop
         offset="0.89"
         stop-color="#cf0e62"
         id="stop41" /><stop
         offset="0.94"
         stop-color="#b5007f"
         id="stop42" /></radialGradient><radialGradient
       id="radial-gradient-7"
       cx="670.34"
       cy="952.71"
       r="891.45"
       gradientTransform="matrix(1,0,0,-1,0,984)"
       gradientUnits="userSpaceOnUse"><stop
         offset="0.28"
         stop-color="#ffea00"
         id="stop43" /><stop
         offset="0.4"
         stop-color="#fd0"
         id="stop44" /><stop
         offset="0.63"
         stop-color="#ffba00"
         id="stop45" /><stop
         offset="0.86"
         stop-color="#ff9100"
         id="stop46" /><stop
         offset="0.93"
         stop-color="#ff6711"
         id="stop47" /><stop
         offset="0.99"
         stop-color="#ff4a1d"
         id="stop48" /></radialGradient><linearGradient
       id="linear-gradient-2"
       x1="-8977.08"
       y1="7615.91"
       x2="-8670.05"
       y2="7694.17"
       gradientTransform="matrix(1.22,0.12,0.12,-1.22,10186.72,10733.96)"
       gradientUnits="userSpaceOnUse"><stop
         offset="0"
         stop-color="#c42482"
         stop-opacity="0.5"
         id="stop49" /><stop
         offset="0.47"
         stop-color="#ff272d"
         stop-opacity="0.5"
         id="stop50" /><stop
         offset="0.49"
         stop-color="#ff2c2c"
         stop-opacity="0.51"
         id="stop51" /><stop
         offset="0.68"
         stop-color="#ff7a1a"
         stop-opacity="0.72"
         id="stop52" /><stop
         offset="0.83"
         stop-color="#ffb20d"
         stop-opacity="0.87"
         id="stop53" /><stop
         offset="0.94"
         stop-color="#ffd605"
         stop-opacity="0.96"
         id="stop54" /><stop
         offset="1"
         stop-color="#ffe302"
         id="stop55" /></linearGradient><linearGradient
       id="linear-gradient-3"
       x1="188.29"
       y1="2056.08"
       x2="133.72"
       y2="2195.93"
       gradientTransform="matrix(0.99,0.1,0.1,-0.99,-247,2281.31)"
       gradientUnits="userSpaceOnUse"><stop
         offset="0"
         stop-color="#891551"
         stop-opacity="0.6"
         id="stop56" /><stop
         offset="1"
         stop-color="#c42482"
         stop-opacity="0"
         id="stop57" /></linearGradient><linearGradient
       id="linear-gradient-4"
       x1="-39.01"
       y1="252.89"
       x2="55.1"
       y2="146.01"
       gradientTransform="matrix(0.99,0.1,0.1,-0.99,232.13,720.9)"
       gradientUnits="userSpaceOnUse"><stop
         offset="0.01"
         stop-color="#891551"
         stop-opacity="0.5"
         id="stop58" /><stop
         offset="0.48"
         stop-color="#ff272d"
         stop-opacity="0.5"
         id="stop59" /><stop
         offset="1"
         stop-color="#ff272d"
         stop-opacity="0"
         id="stop60" /></linearGradient><linearGradient
       id="linear-gradient-5"
       x1="141.88"
       y1="68.53"
       x2="141.95"
       y2="143.31"
       gradientTransform="matrix(0.99,0.1,0.1,-0.99,232.13,720.9)"
       gradientUnits="userSpaceOnUse"><stop
         offset="0"
         stop-color="#c42482"
         id="stop61" /><stop
         offset="0.08"
         stop-color="#c42482"
         stop-opacity="0.81"
         id="stop62" /><stop
         offset="0.21"
         stop-color="#c42482"
         stop-opacity="0.57"
         id="stop63" /><stop
         offset="0.33"
         stop-color="#c42482"
         stop-opacity="0.36"
         id="stop64" /><stop
         offset="0.45"
         stop-color="#c42482"
         stop-opacity="0.2"
         id="stop65" /><stop
         offset="0.56"
         stop-color="#c42482"
         stop-opacity="0.09"
         id="stop66" /><stop
         offset="0.67"
         stop-color="#c42482"
         stop-opacity="0.02"
         id="stop67" /><stop
         offset="0.77"
         stop-color="#c42482"
         stop-opacity="0"
         id="stop68" /></linearGradient><linearGradient
       id="linear-gradient-6"
       x1="620.52"
       y1="947.88"
       x2="926.18"
       y2="264.39"
       gradientTransform="matrix(1,0,0,-1,0,984)"
       gradientUnits="userSpaceOnUse"><stop
         offset="0"
         stop-color="#fff14f"
         id="stop69" /><stop
         offset="0.27"
         stop-color="#ffee4c"
         id="stop70" /><stop
         offset="0.45"
         stop-color="#ffe643"
         id="stop71" /><stop
         offset="0.61"
         stop-color="#ffd834"
         id="stop72" /><stop
         offset="0.76"
         stop-color="#ffc41e"
         id="stop73" /><stop
         offset="0.89"
         stop-color="#ffab02"
         id="stop74" /><stop
         offset="0.9"
         stop-color="#ffa900"
         id="stop75" /><stop
         offset="0.95"
         stop-color="#ffa000"
         id="stop76" /><stop
         offset="1"
         stop-color="#ff9100"
         id="stop77" /></linearGradient><linearGradient
       id="linear-gradient-7"
       x1="680.88"
       y1="554.79"
       x2="536.1"
       y2="166.04"
       gradientTransform="matrix(1,0,0,-1,0,984)"
       gradientUnits="userSpaceOnUse"><stop
         offset="0"
         stop-color="#ff8e00"
         id="stop78" /><stop
         offset="0.04"
         stop-color="#ff8e00"
         stop-opacity="0.86"
         id="stop79" /><stop
         offset="0.08"
         stop-color="#ff8e00"
         stop-opacity="0.73"
         id="stop80" /><stop
         offset="0.13"
         stop-color="#ff8e00"
         stop-opacity="0.63"
         id="stop81" /><stop
         offset="0.18"
         stop-color="#ff8e00"
         stop-opacity="0.56"
         id="stop82" /><stop
         offset="0.23"
         stop-color="#ff8e00"
         stop-opacity="0.51"
         id="stop83" /><stop
         offset="0.28"
         stop-color="#ff8e00"
         stop-opacity="0.5"
         id="stop84" /><stop
         offset="0.39"
         stop-color="#ff8e00"
         stop-opacity="0.48"
         id="stop85" /><stop
         offset="0.52"
         stop-color="#ff8e00"
         stop-opacity="0.42"
         id="stop86" /><stop
         offset="0.68"
         stop-color="#ff8e00"
         stop-opacity="0.31"
         id="stop87" /><stop
         offset="0.84"
         stop-color="#ff8e00"
         stop-opacity="0.17"
         id="stop88" /><stop
         offset="1"
         stop-color="#ff8e00"
         stop-opacity="0"
         id="stop89" /></linearGradient><linearGradient
       id="a-3"
       x1="70.79"
       x2="6.447"
       y1="12.39"
       y2="74.47"
       gradientTransform="translate(-1.3,-0.004086)"
       gradientUnits="userSpaceOnUse"><stop
         stop-color="#fff44f"
         offset=".048"
         id="stop1-6" /><stop
         stop-color="#ffe847"
         offset=".111"
         id="stop2-7" /><stop
         stop-color="#ffc830"
         offset=".225"
         id="stop3-5" /><stop
         stop-color="#ff980e"
         offset=".368"
         id="stop4-3" /><stop
         stop-color="#ff8b16"
         offset=".401"
         id="stop5-5" /><stop
         stop-color="#ff672a"
         offset=".462"
         id="stop6-6" /><stop
         stop-color="#ff3647"
         offset=".534"
         id="stop7-2" /><stop
         stop-color="#e31587"
         offset=".705"
         id="stop8-9" /></linearGradient><radialGradient
       id="b-1"
       cx="-7907"
       cy="-8515"
       r="80.8"
       gradientTransform="translate(7974,8524)"
       gradientUnits="userSpaceOnUse"><stop
         stop-color="#ffbd4f"
         offset=".129"
         id="stop9-2" /><stop
         stop-color="#ffac31"
         offset=".186"
         id="stop10-7" /><stop
         stop-color="#ff9d17"
         offset=".247"
         id="stop11-0" /><stop
         stop-color="#ff980e"
         offset=".283"
         id="stop12-9" /><stop
         stop-color="#ff563b"
         offset=".403"
         id="stop13-3" /><stop
         stop-color="#ff3750"
         offset=".467"
         id="stop14-6" /><stop
         stop-color="#f5156c"
         offset=".71"
         id="stop15-0" /><stop
         stop-color="#eb0878"
         offset=".782"
         id="stop16-6" /><stop
         stop-color="#e50080"
         offset=".86"
         id="stop17-2" /></radialGradient><radialGradient
       id="c-6"
       cx="-7937"
       cy="-8482"
       r="80.8"
       gradientTransform="translate(7974,8524)"
       gradientUnits="userSpaceOnUse"><stop
         stop-color="#960e18"
         offset=".3"
         id="stop18-1" /><stop
         stop-color="#b11927"
         stop-opacity=".74"
         offset=".351"
         id="stop19-8" /><stop
         stop-color="#db293d"
         stop-opacity=".343"
         offset=".435"
         id="stop20-7" /><stop
         stop-color="#f5334b"
         stop-opacity=".094"
         offset=".497"
         id="stop21-9" /><stop
         stop-color="#ff3750"
         stop-opacity="0"
         offset=".53"
         id="stop22-2" /></radialGradient><radialGradient
       id="d-0"
       cx="-7927"
       cy="-8533"
       r="58.53"
       gradientTransform="translate(7974,8524)"
       gradientUnits="userSpaceOnUse"><stop
         stop-color="#fff44f"
         offset=".132"
         id="stop23-2" /><stop
         stop-color="#ffdc3e"
         offset=".252"
         id="stop24-3" /><stop
         stop-color="#ff9d12"
         offset=".506"
         id="stop25-7" /><stop
         stop-color="#ff980e"
         offset=".526"
         id="stop26-5" /></radialGradient><radialGradient
       id="e-9"
       cx="-7946"
       cy="-8461"
       r="38.47"
       gradientTransform="translate(7974,8524)"
       gradientUnits="userSpaceOnUse"><stop
         stop-color="#3a8ee6"
         offset=".353"
         id="stop27-2" /><stop
         stop-color="#5c79f0"
         offset=".472"
         id="stop28-2" /><stop
         stop-color="#9059ff"
         offset=".669"
         id="stop29-8" /><stop
         stop-color="#c139e6"
         offset="1"
         id="stop30-9" /></radialGradient><radialGradient
       id="f-7"
       cx="-7936"
       cy="-8492"
       r="20.4"
       gradientTransform="matrix(0.972,-0.235,0.275,1.138,10090,7834)"
       gradientUnits="userSpaceOnUse"><stop
         stop-color="#9059ff"
         stop-opacity="0"
         offset=".206"
         id="stop31-3" /><stop
         stop-color="#8c4ff3"
         stop-opacity=".064"
         offset=".278"
         id="stop32-6" /><stop
         stop-color="#7716a8"
         stop-opacity=".45"
         offset=".747"
         id="stop33-1" /><stop
         stop-color="#6e008b"
         stop-opacity=".6"
         offset=".975"
         id="stop34-2" /></radialGradient><radialGradient
       id="g-9"
       cx="-7938"
       cy="-8518"
       r="27.68"
       gradientTransform="translate(7974,8524)"
       gradientUnits="userSpaceOnUse"><stop
         stop-color="#ffe226"
         offset="0"
         id="stop35-3" /><stop
         stop-color="#ffdb27"
         offset=".121"
         id="stop36-1" /><stop
         stop-color="#ffc82a"
         offset=".295"
         id="stop37-9" /><stop
         stop-color="#ffa930"
         offset=".502"
         id="stop38-4" /><stop
         stop-color="#ff7e37"
         offset=".732"
         id="stop39-7" /><stop
         stop-color="#ff7139"
         offset=".792"
         id="stop40-8" /></radialGradient><radialGradient
       id="h-4"
       cx="-7916"
       cy="-8536"
       r="118.1"
       gradientTransform="translate(7974,8524)"
       gradientUnits="userSpaceOnUse"><stop
         stop-color="#fff44f"
         offset=".113"
         id="stop41-5" /><stop
         stop-color="#ff980e"
         offset=".456"
         id="stop42-0" /><stop
         stop-color="#ff5634"
         offset=".622"
         id="stop43-3" /><stop
         stop-color="#ff3647"
         offset=".716"
         id="stop44-6" /><stop
         stop-color="#e31587"
         offset=".904"
         id="stop45-1" /></radialGradient><radialGradient
       id="i-0"
       cx="-7927"
       cy="-8523"
       r="86.5"
       gradientTransform="matrix(0.105,0.995,-0.653,0.069,-4685,8470)"
       gradientUnits="userSpaceOnUse"><stop
         stop-color="#fff44f"
         offset="0"
         id="stop46-6" /><stop
         stop-color="#ffe847"
         offset=".06"
         id="stop47-3" /><stop
         stop-color="#ffc830"
         offset=".168"
         id="stop48-2" /><stop
         stop-color="#ff980e"
         offset=".304"
         id="stop49-0" /><stop
         stop-color="#ff8b16"
         offset=".356"
         id="stop50-6" /><stop
         stop-color="#ff672a"
         offset=".455"
         id="stop51-1" /><stop
         stop-color="#ff3647"
         offset=".57"
         id="stop52-5" /><stop
         stop-color="#e31587"
         offset=".737"
         id="stop53-5" /></radialGradient><radialGradient
       id="j-4"
       cx="-7938"
       cy="-8508"
       r="73.72"
       gradientTransform="translate(7974,8524)"
       gradientUnits="userSpaceOnUse"><stop
         stop-color="#fff44f"
         offset=".137"
         id="stop54-7" /><stop
         stop-color="#ff980e"
         offset=".48"
         id="stop55-6" /><stop
         stop-color="#ff5634"
         offset=".592"
         id="stop56-5" /><stop
         stop-color="#ff3647"
         offset=".655"
         id="stop57-6" /><stop
         stop-color="#e31587"
         offset=".904"
         id="stop58-9" /></radialGradient><radialGradient
       id="k"
       cx="-7919"
       cy="-8504"
       r="80.69"
       gradientTransform="translate(7974,8524)"
       gradientUnits="userSpaceOnUse"><stop
         stop-color="#fff44f"
         offset=".094"
         id="stop59-3" /><stop
         stop-color="#ffe141"
         offset=".231"
         id="stop60-7" /><stop
         stop-color="#ffaf1e"
         offset=".509"
         id="stop61-4" /><stop
         stop-color="#ff980e"
         offset=".626"
         id="stop62-5" /></radialGradient><linearGradient
       id="l"
       x1="70.01"
       x2="15.27"
       y1="12.06"
       y2="66.81"
       gradientTransform="translate(-1.3,-0.004086)"
       gradientUnits="userSpaceOnUse"><stop
         stop-color="#fff44f"
         stop-opacity=".8"
         offset=".167"
         id="stop63-2" /><stop
         stop-color="#fff44f"
         stop-opacity=".634"
         offset=".266"
         id="stop64-5" /><stop
         stop-color="#fff44f"
         stop-opacity=".217"
         offset=".489"
         id="stop65-4" /><stop
         stop-color="#fff44f"
         stop-opacity="0"
         offset=".6"
         id="stop66-7" /></linearGradient></defs><g
     transform="matrix(0.19853916,0,0,0.19853916,0.77999823,0.5327131)"
     id="g77"><path
       d="m 74.62,26.83 c -1.684,-4.052 -5.1,-8.427 -7.775,-9.81 a 40.27,40.27 0 0 1 3.925,11.76 l 0.007,0.065 C 66.395,17.925 58.967,13.515 52.897,3.925 52.59,3.44 52.283,2.954 51.984,2.441 51.813,2.148 51.676,1.884 51.557,1.641 a 7.053,7.053 0 0 1 -0.578,-1.535 0.1,0.1 0 0 0 -0.088,-0.1 0.138,0.138 0 0 0 -0.073,0 c -0.005,0 -0.013,0.009 -0.019,0.011 -0.006,0.002 -0.019,0.011 -0.028,0.015 l 0.015,-0.026 c -9.735,5.7 -13.04,16.25 -13.34,21.53 a 19.39,19.39 0 0 0 -10.67,4.111 11.59,11.59 0 0 0 -1,-0.758 17.97,17.97 0 0 1 -0.109,-9.473 28.7,28.7 0 0 0 -9.329,7.21 H 16.32 c -1.536,-1.947 -1.428,-8.367 -1.34,-9.708 a 6.928,6.928 0 0 0 -1.294,0.687 28.22,28.22 0 0 0 -3.788,3.245 33.84,33.84 0 0 0 -3.623,4.347 v 0.006 -0.007 a 32.73,32.73 0 0 0 -5.2,11.74 l -0.052,0.256 c -0.073,0.341 -0.336,2.049 -0.381,2.42 0,0.029 -0.006,0.056 -0.009,0.085 A 36.94,36.94 0 0 0 0.004,41.04 v 0.2 a 38.76,38.76 0 0 0 76.95,6.554 c 0.065,-0.5 0.118,-0.995 0.176,-1.5 A 39.86,39.86 0 0 0 74.616,26.824 Z M 29.95,57.17 c 0.181,0.087 0.351,0.181 0.537,0.264 l 0.027,0.017 Q 30.232,57.316 29.95,57.17 Z m 8.878,-23.38 m 31.95,-4.934 v -0.037 l 0.007,0.041 z"
       fill="url(#a)"
       id="path66"
       style="fill:url(#a-3)" /><path
       d="m 74.62,26.83 c -1.684,-4.052 -5.1,-8.427 -7.775,-9.81 a 40.27,40.27 0 0 1 3.925,11.76 v 0.037 l 0.007,0.041 a 35.1,35.1 0 0 1 -1.206,26.16 c -4.442,9.531 -15.19,19.3 -32.02,18.82 -18.18,-0.515 -34.2,-14.01 -37.19,-31.68 -0.545,-2.787 0,-4.2 0.274,-6.465 a 28.88,28.88 0 0 0 -0.623,5.348 v 0.2 a 38.76,38.76 0 0 0 76.95,6.554 c 0.065,-0.5 0.118,-0.995 0.176,-1.5 a 39.86,39.86 0 0 0 -2.514,-19.47 z"
       fill="url(#b)"
       id="path67"
       style="fill:url(#b-1)" /><path
       d="m 74.62,26.83 c -1.684,-4.052 -5.1,-8.427 -7.775,-9.81 a 40.27,40.27 0 0 1 3.925,11.76 v 0.037 l 0.007,0.041 a 35.1,35.1 0 0 1 -1.206,26.16 c -4.442,9.531 -15.19,19.3 -32.02,18.82 -18.18,-0.515 -34.2,-14.01 -37.19,-31.68 -0.545,-2.787 0,-4.2 0.274,-6.465 a 28.88,28.88 0 0 0 -0.623,5.348 v 0.2 a 38.76,38.76 0 0 0 76.95,6.554 c 0.065,-0.5 0.118,-0.995 0.176,-1.5 a 39.86,39.86 0 0 0 -2.514,-19.47 z"
       fill="url(#c)"
       id="path68"
       style="fill:url(#c-6)" /><path
       d="m 55.78,31.38 c 0.084,0.059 0.162,0.118 0.241,0.177 a 21.1,21.1 0 0 0 -3.6,-4.695 C 40.371,14.812 49.264,0.742 50.763,0.022 L 50.778,0 c -9.735,5.7 -13.04,16.25 -13.34,21.53 0.452,-0.031 0.9,-0.069 1.362,-0.069 a 19.56,19.56 0 0 1 16.98,9.917 z"
       fill="url(#d)"
       id="path69"
       style="fill:url(#d-0)" /><path
       d="m 38.82,33.79 c -0.064,0.964 -3.47,4.289 -4.661,4.289 -11.02,0 -12.81,6.667 -12.81,6.667 0.488,5.614 4.4,10.24 9.129,12.68 0.216,0.112 0.435,0.213 0.654,0.312 q 0.569,0.252 1.138,0.466 a 17.24,17.24 0 0 0 5.043,0.973 c 19.32,0.906 23.06,-23.1 9.119,-30.07 a 13.38,13.38 0 0 1 9.345,2.269 19.56,19.56 0 0 0 -16.98,-9.917 c -0.46,0 -0.91,0.038 -1.362,0.069 a 19.39,19.39 0 0 0 -10.67,4.111 c 0.591,0.5 1.258,1.168 2.663,2.553 2.63,2.591 9.375,5.275 9.39,5.59 z"
       fill="url(#e)"
       id="path70"
       style="fill:url(#e-9)" /><path
       d="m 38.82,33.79 c -0.064,0.964 -3.47,4.289 -4.661,4.289 -11.02,0 -12.81,6.667 -12.81,6.667 0.488,5.614 4.4,10.24 9.129,12.68 0.216,0.112 0.435,0.213 0.654,0.312 q 0.569,0.252 1.138,0.466 a 17.24,17.24 0 0 0 5.043,0.973 c 19.32,0.906 23.06,-23.1 9.119,-30.07 a 13.38,13.38 0 0 1 9.345,2.269 19.56,19.56 0 0 0 -16.98,-9.917 c -0.46,0 -0.91,0.038 -1.362,0.069 a 19.39,19.39 0 0 0 -10.67,4.111 c 0.591,0.5 1.258,1.168 2.663,2.553 2.63,2.591 9.375,5.275 9.39,5.59 z"
       fill="url(#f)"
       id="path71"
       style="fill:url(#f-7)" /><path
       d="m 24.96,24.36 c 0.314,0.2 0.573,0.374 0.8,0.531 a 17.97,17.97 0 0 1 -0.109,-9.473 28.7,28.7 0 0 0 -9.329,7.21 c 0.189,-0.005 5.811,-0.106 8.638,1.732 z"
       fill="url(#g)"
       id="path72"
       style="fill:url(#g-9)" /><path
       d="m 0.354,42.16 c 2.991,17.67 19.01,31.17 37.19,31.68 16.83,0.476 27.58,-9.294 32.02,-18.82 A 35.1,35.1 0 0 0 70.77,28.86 v -0.037 c 0,-0.029 -0.006,-0.046 0,-0.037 l 0.007,0.065 c 1.375,8.977 -3.191,17.67 -10.33,23.56 l -0.022,0.05 c -13.91,11.33 -27.22,6.834 -29.91,5 Q 30.233,57.326 29.951,57.18 C 21.842,53.304 18.491,45.92 19.211,39.58 a 9.953,9.953 0 0 1 -9.181,-5.775 14.62,14.62 0 0 1 14.25,-0.572 19.3,19.3 0 0 0 14.55,0.572 c -0.015,-0.315 -6.76,-3 -9.39,-5.59 -1.405,-1.385 -2.072,-2.052 -2.663,-2.553 a 11.59,11.59 0 0 0 -1,-0.758 c -0.23,-0.157 -0.489,-0.327 -0.8,-0.531 -2.827,-1.838 -8.449,-1.737 -8.635,-1.732 h -0.018 c -1.536,-1.947 -1.428,-8.367 -1.34,-9.708 A 6.928,6.928 0 0 0 13.69,13.62 28.22,28.22 0 0 0 9.902,16.865 33.84,33.84 0 0 0 6.264,21.202 v 0.006 -0.007 a 32.73,32.73 0 0 0 -5.2,11.74 C 1.045,33.02 -0.332,39.04 0.347,42.162 Z"
       fill="url(#h)"
       id="path73"
       style="fill:url(#h-4)" /><path
       d="m 52.42,26.86 a 21.1,21.1 0 0 1 3.6,4.7 c 0.213,0.161 0.412,0.321 0.581,0.476 8.787,8.1 4.183,19.55 3.84,20.36 7.138,-5.881 11.7,-14.58 10.33,-23.56 C 66.387,17.906 58.951,13.496 52.891,3.906 52.584,3.421 52.277,2.935 51.978,2.422 51.807,2.129 51.67,1.865 51.551,1.622 a 7.053,7.053 0 0 1 -0.578,-1.535 0.1,0.1 0 0 0 -0.088,-0.1 0.138,0.138 0 0 0 -0.073,0 c -0.005,0 -0.013,0.009 -0.019,0.011 -0.006,0.002 -0.019,0.011 -0.028,0.015 -1.499,0.711 -10.39,14.79 1.66,26.83 z"
       fill="url(#i)"
       id="path74"
       style="fill:url(#i-0)" /><path
       d="M 56.6,32.04 C 56.431,31.885 56.232,31.725 56.019,31.564 55.94,31.505 55.862,31.446 55.778,31.387 a 13.38,13.38 0 0 0 -9.345,-2.269 c 13.94,6.97 10.2,30.97 -9.119,30.07 a 17.24,17.24 0 0 1 -5.043,-0.973 q -0.569,-0.213 -1.138,-0.466 c -0.219,-0.1 -0.438,-0.2 -0.654,-0.312 l 0.027,0.017 c 2.694,1.839 16,6.332 29.91,-5 l 0.022,-0.05 c 0.347,-0.81 4.951,-12.26 -3.84,-20.36 z"
       fill="url(#j)"
       id="path75"
       style="fill:url(#j-4)" /><path
       d="m 21.35,44.74 c 0,0 1.789,-6.667 12.81,-6.667 1.191,0 4.6,-3.325 4.661,-4.289 a 19.3,19.3 0 0 1 -14.55,-0.572 14.62,14.62 0 0 0 -14.25,0.572 9.953,9.953 0 0 0 9.181,5.775 c -0.718,6.337 2.632,13.72 10.74,17.6 0.181,0.087 0.351,0.181 0.537,0.264 -4.733,-2.445 -8.641,-7.069 -9.129,-12.68 z"
       fill="url(#k)"
       id="path76"
       style="fill:url(#k)" /><path
       d="m 74.62,26.83 c -1.684,-4.052 -5.1,-8.427 -7.775,-9.81 a 40.27,40.27 0 0 1 3.925,11.76 l 0.007,0.065 C 66.395,17.925 58.967,13.515 52.897,3.925 52.59,3.44 52.283,2.954 51.984,2.441 51.813,2.148 51.676,1.884 51.557,1.641 a 7.053,7.053 0 0 1 -0.578,-1.535 0.1,0.1 0 0 0 -0.088,-0.1 0.138,0.138 0 0 0 -0.073,0 c -0.005,0 -0.013,0.009 -0.019,0.011 -0.006,0.002 -0.019,0.011 -0.028,0.015 l 0.015,-0.026 c -9.735,5.7 -13.04,16.25 -13.34,21.53 0.452,-0.031 0.9,-0.069 1.362,-0.069 a 19.56,19.56 0 0 1 16.98,9.917 13.38,13.38 0 0 0 -9.345,-2.269 c 13.94,6.97 10.2,30.97 -9.119,30.07 a 17.24,17.24 0 0 1 -5.043,-0.973 q -0.569,-0.213 -1.138,-0.466 c -0.219,-0.1 -0.438,-0.2 -0.654,-0.312 l 0.027,0.017 Q 30.234,57.316 29.952,57.17 c 0.181,0.087 0.351,0.181 0.537,0.264 -4.733,-2.446 -8.641,-7.07 -9.129,-12.68 0,0 1.789,-6.667 12.81,-6.667 1.191,0 4.6,-3.325 4.661,-4.289 -0.015,-0.315 -6.76,-3 -9.39,-5.59 -1.405,-1.385 -2.072,-2.052 -2.663,-2.553 a 11.59,11.59 0 0 0 -1,-0.758 17.97,17.97 0 0 1 -0.109,-9.473 28.7,28.7 0 0 0 -9.329,7.21 h -0.018 c -1.536,-1.947 -1.428,-8.367 -1.34,-9.708 A 6.928,6.928 0 0 0 13.688,13.613 28.22,28.22 0 0 0 9.9,16.858 33.84,33.84 0 0 0 6.277,21.205 v 0.006 -0.007 a 32.73,32.73 0 0 0 -5.2,11.74 L 1.025,33.2 c -0.073,0.341 -0.4,2.073 -0.447,2.445 a 45.09,45.09 0 0 0 -0.572,5.403 v 0.2 a 38.76,38.76 0 0 0 76.95,6.554 c 0.065,-0.5 0.118,-0.995 0.176,-1.5 a 39.86,39.86 0 0 0 -2.514,-19.47 z m -3.845,1.991 0.007,0.041 z"
       fill="url(#l)"
       id="path77"
       style="fill:url(#l)" /></g></svg>
